<svg xmlns="http://www.w3.org/2000/svg" width="1200" height="630" viewBox="0 0 1200 630" role="img" aria-labelledby="t">
  <title id="t">Free packaging box designer — 3D Box Studio preview</title>
  <defs>
    <linearGradient id="bg" x1="0%" y1="0%" x2="100%" y2="100%">
      <stop offset="0%" stop-color="#0a0d14"/>
      <stop offset="50%" stop-color="#121826"/>
      <stop offset="100%" stop-color="#0c1018"/>
    </linearGradient>
    <linearGradient id="box" x1="0%" y1="0%" x2="0%" y2="100%">
      <stop offset="0%" stop-color="#d4b896"/>
      <stop offset="100%" stop-color="#8b6f4a"/>
    </linearGradient>
    <filter id="glow" x="-20%" y="-20%" width="140%" height="140%">
      <feGaussianBlur stdDeviation="8" result="b"/>
      <feMerge><feMergeNode in="b"/><feMergeNode in="SourceGraphic"/></feMerge>
    </filter>
  </defs>
  <rect width="1200" height="630" fill="url(#bg)"/>
  <text x="72" y="120" fill="#e8eaef" font-family="system-ui,sans-serif" font-size="52" font-weight="700">3D Box Studio</text>
  <text x="72" y="185" fill="#8b93a4" font-family="system-ui,sans-serif" font-size="26">Free 3D packaging box designer in your browser</text>
  <g transform="translate(620 120)" filter="url(#glow)">
    <path fill="url(#box)" d="M0 80 L140 20 L280 80 L140 140 Z"/>
    <path fill="#6d5238" d="M0 80 L0 220 L140 280 L140 140 Z"/>
    <path fill="#a08060" d="M280 80 L280 220 L140 280 L140 140 Z"/>
    <path fill="#c4a574" d="M140 20 L280 80 L140 140 L0 80 Z"/>
  </g>
  <rect x="72" y="480" width="1056" height="3" rx="1.5" fill="#3d9eff" opacity="0.5"/>
  <text x="72" y="560" fill="#6b7384" font-family="system-ui,sans-serif" font-size="18">Free · No account · Runs locally in your browser</text>
</svg>
