<svg xmlns="http://www.w3.org/2000/svg" width="640" height="400" viewBox="0 0 640 400" role="img" aria-labelledby="t">
  <title id="t">Mock studio UI  editor panel and 3D viewport</title>
  <rect width="640" height="400" rx="12" fill="#0c1018"/>
  <rect x="0" y="0" width="380" height="400" fill="#0a0d14"/>
  <rect x="12" y="16" width="356" height="28" rx="6" fill="#1a1f28"/>
  <rect x="12" y="56" width="160" height="14" rx="4" fill="#252b36"/>
  <rect x="12" y="82" width="356" height="120" rx="8" fill="#141820" stroke="#252b36"/>
  <rect x="24" y="96" width="100" height="10" rx="3" fill="#353d4d"/>
  <rect x="24" y="118" width="320" height="8" rx="3" fill="#252b36"/>
  <rect x="24" y="136" width="280" height="8" rx="3" fill="#252b36"/>
  <rect x="24" y="168" width="332" height="22" rx="6" fill="#1a1f28" stroke="#353d4d"/>
  <rect x="392" y="16" width="236" height="368" rx="10" fill="#121826"/>
  <text x="510" y="200" text-anchor="middle" fill="#3d4a5c" font-family="system-ui,sans-serif" font-size="14">3D Viewport</text>
  <g transform="translate(510 255)">
    <path fill="#a08060" d="M-36 18 L0-8 L36 18 L0 44 Z"/>
    <path fill="#6d5238" d="M-36 18 L-36 44 L0 58 L0 32 Z"/>
    <path fill="#8b6f4a" d="M36 18 L36 44 L0 58 L0 32 Z"/>
  </g>
</svg>
