<svg xmlns="http://www.w3.org/2000/svg" width="640" height="400" viewBox="0 0 640 400" role="img" aria-labelledby="t">
  <title id="t">Mock feature  opening styles and materials</title>
  <rect width="640" height="400" rx="12" fill="#0c1018"/>
  <rect x="40" y="40" width="260" height="320" rx="10" fill="#141820" stroke="#252b36"/>
  <text x="60" y="76" fill="#8b93a4" font-family="system-ui,sans-serif" font-size="13">Opening style</text>
  <rect x="56" y="92" width="228" height="36" rx="8" fill="#1a1f28"/>
  <rect x="56" y="140" width="228" height="36" rx="8" fill="#1a1f28"/>
  <rect x="56" y="188" width="228" height="36" rx="8" fill="#252b36" stroke="#3d9eff"/>
  <rect x="340" y="40" width="260" height="320" rx="10" fill="#121826"/>
  <text x="360" y="76" fill="#8b93a4" font-family="system-ui,sans-serif" font-size="13">Material preset</text>
  <rect x="356" y="92" width="228" height="44" rx="8" fill="#c4a574"/>
  <rect x="356" y="148" width="228" height="44" rx="8" fill="#f2f0ea"/>
  <rect x="356" y="204" width="228" height="44" rx="8" fill="#eaeaea"/>
  <g transform="translate(470 310)">
    <path fill="#a08060" d="M-50 20 L0-25 L50 20 L0 65 Z"/>
    <path fill="#6d5238" d="M-50 20 L-50 55 L0 80 L0 45 Z"/>
    <path fill="#8b6f4a" d="M50 20 L50 55 L0 80 L0 45 Z"/>
  </g>
</svg>
